<?xml version="1.0" standalone="no"?>
<!DOCTYPE svg PUBLIC "-//W3C//DTD SVG 20010904//EN"
 "http://www.w3.org/TR/2001/REC-SVG-20010904/DTD/svg10.dtd">
<svg version="1.0" xmlns="http://www.w3.org/2000/svg"
 width="16.000000pt" height="16.000000pt" viewBox="0 0 16.000000 16.000000"
 preserveAspectRatio="xMidYMid meet">
<metadata>
Created by potrace 1.11, written by Peter Selinger 2001-2013
</metadata>
<g transform="translate(0.000000,16.000000) scale(0.006154,-0.006154)"
fill="#000000" stroke="none">
<path d="M985 2355 c-176 -89 -327 -169 -335 -178 -8 -9 -24 -33 -35 -53 -11
-21 -51 -95 -88 -164 -38 -69 -88 -161 -112 -205 -24 -44 -70 -128 -102 -186
l-58 -106 1 -624 c0 -463 4 -630 13 -646 6 -13 24 -26 39 -30 15 -3 464 -7
999 -7 535 0 970 -3 967 -7 -2 -4 14 2 36 12 47 23 84 89 59 105 -6 3 -5 12 2
21 8 9 9 17 3 21 -11 8 -12 27 -1 38 4 4 7 12 7 18 0 6 -5 4 -10 -4 -8 -13
-10 -13 -10 2 0 9 5 20 10 23 8 5 8 11 0 20 -7 8 -7 15 -1 19 10 6 10 24 -1
41 -4 6 -3 17 2 25 5 8 5 21 -1 31 -5 11 -5 20 0 23 10 7 9 25 -1 41 -4 6 -3
17 2 25 5 8 5 21 -1 31 -6 11 -5 20 1 24 5 3 10 12 10 18 0 7 -4 6 -10 -3 -8
-13 -10 -13 -10 2 0 9 5 20 10 23 8 5 8 11 0 20 -7 8 -7 15 -1 19 10 6 10 24
-1 41 -4 6 -3 17 2 25 5 8 5 21 -1 31 -5 11 -5 20 0 23 10 7 9 25 -1 41 -4 6
-3 17 2 25 5 8 5 21 -1 31 -6 11 -5 20 1 24 5 3 10 12 10 18 0 7 -4 6 -10 -3
-8 -13 -10 -13 -10 2 0 9 5 20 10 23 8 5 8 11 0 20 -7 8 -7 15 -1 19 10 6 10
24 -1 41 -4 6 -3 17 2 25 5 8 5 21 -1 31 -5 11 -5 20 0 23 10 7 9 25 -1 41 -4
6 -3 17 2 25 5 8 5 21 -1 31 -6 11 -5 20 1 24 5 3 10 12 10 18 0 7 -4 6 -10
-3 -8 -13 -10 -13 -10 2 0 9 5 20 10 23 8 5 8 11 0 20 -7 8 -7 15 -1 19 10 7
9 31 -2 42 -4 4 -2 13 5 21 8 10 7 17 -4 26 -8 7 -36 50 -61 97 -70 133 -102
191 -133 245 -15 28 -46 84 -68 125 -23 42 -61 113 -86 159 l-45 83 -320 160
c-176 88 -321 164 -323 169 -2 5 -9 8 -15 7 -7 0 -156 -74 -332 -163z m262
-135 l0 -111 -35 33 c-19 18 -54 52 -77 76 l-44 42 42 22 c23 12 56 29 72 38
17 9 33 15 36 13 3 -1 6 -52 6 -113z m261 51 c24 -13 23 -14 -52 -87 -41 -41
-77 -74 -79 -74 -3 0 -1 159 2 212 1 16 7 14 54 -11 28 -15 63 -33 75 -40z
m-379 -230 l118 -120 0 -120 c0 -67 -2 -121 -4 -121 -6 0 -233 230 -234 238
-2 25 -3 242 -1 242 2 0 56 -54 121 -119z m486 -5 l0 -124 -115 -116 c-63 -64
-117 -116 -120 -116 -6 0 -5 238 1 245 34 37 225 233 229 234 3 1 5 -55 5
-123z m-738 -121 c0 -129 -2 -235 -3 -235 -2 0 -55 51 -117 114 l-114 114 49
89 c44 80 54 91 106 119 31 18 62 32 68 33 7 1 11 -73 11 -234z m944 202 c51
-27 67 -42 88 -83 14 -27 28 -51 31 -54 3 -3 12 -21 21 -40 l17 -35 -112 -112
c-61 -62 -113 -113 -116 -113 -3 0 -5 106 -5 235 0 129 3 235 7 235 3 0 34
-15 69 -33z m-1068 -503 l94 -91 -207 -1 -207 -1 67 123 c37 68 70 128 74 134
4 7 21 -4 46 -31 22 -23 81 -83 133 -133z m1405 -37 l30 -54 -206 -1 -205 -1
133 134 134 134 42 -78 c23 -44 55 -104 72 -134z m-1044 46 l98 -101 -101 0
c-70 0 -101 3 -102 11 -3 42 0 203 4 196 1 -3 46 -50 101 -106z m502 3 l-1
-105 -104 1 -104 0 104 104 c57 57 104 104 105 104 1 0 1 -47 0 -104z m615
-243 c5 -39 2 -1068 -2 -1081 -6 -16 -35 -17 -330 -16 -178 1 -327 2 -330 3
-4 1 -7 85 -6 189 0 103 -3 203 -8 222 -41 188 -261 266 -404 144 -64 -55 -94
-139 -92 -259 1 -82 2 -247 1 -270 l0 -30 -332 2 c-183 0 -335 1 -338 2 -4 1
-5 1029 -1 1089 1 9 192 12 921 12 506 0 920 -3 921 -7z m-846 -633 c39 -32
44 -63 45 -260 1 -105 -1 -194 -4 -198 -3 -3 -57 -6 -120 -6 l-114 -1 0 201
c0 224 4 241 69 274 35 18 96 13 124 -10z"/>
<path d="M531 1254 c-25 -22 -25 -23 -27 -190 0 -135 3 -175 15 -196 8 -16 22
-29 31 -29 50 -4 329 -5 347 -1 41 8 50 53 49 230 -3 219 11 207 -218 207
-162 0 -174 -1 -197 -21z"/>
<path d="M1702 1255 c-23 -20 -24 -23 -24 -199 -1 -236 -16 -221 216 -222 236
-1 220 -15 221 203 1 181 -5 218 -38 230 -12 4 -96 7 -187 8 -152 1 -166 -1
-188 -20z"/>
<path d="M1740 405 l0 -65 65 0 65 0 0 65 0 65 -65 0 -65 0 0 -65z"/>
<path d="M1988 463 c-3 -7 -2 -90 1 -116 1 -4 29 -7 63 -5 l63 3 0 63 1 62
-62 0 c-35 0 -64 -3 -66 -7z"/>
</g>
</svg>
