<?xml version="1.0" encoding="UTF-8" standalone="no"?>
<svg
   xmlns:dc="http://purl.org/dc/elements/1.1/"
   xmlns:cc="http://creativecommons.org/ns#"
   xmlns:rdf="http://www.w3.org/1999/02/22-rdf-syntax-ns#"
   xmlns:svg="http://www.w3.org/2000/svg"
   xmlns="http://www.w3.org/2000/svg"
   xmlns:sodipodi="http://sodipodi.sourceforge.net/DTD/sodipodi-0.dtd"
   xmlns:inkscape="http://www.inkscape.org/namespaces/inkscape"
   version="1.0"
   width="16.000000pt"
   height="16.000000pt"
   viewBox="0 0 16.000000 16.000000"
   preserveAspectRatio="xMidYMid meet"
   id="svg16"
   sodipodi:docname="icon.svg"
   inkscape:version="0.92.1 r15371">
  <defs
     id="defs20" />
  <sodipodi:namedview
     pagecolor="#ffffff"
     bordercolor="#666666"
     borderopacity="1"
     objecttolerance="10"
     gridtolerance="10"
     guidetolerance="10"
     inkscape:pageopacity="0"
     inkscape:pageshadow="2"
     inkscape:window-width="1319"
     inkscape:window-height="1007"
     id="namedview18"
     showgrid="false"
     inkscape:zoom="32"
     inkscape:cx="11.725425"
     inkscape:cy="8.8135479"
     inkscape:window-x="10"
     inkscape:window-y="34"
     inkscape:window-maximized="0"
     inkscape:current-layer="g14" />
  <metadata
     id="metadata2">
Created by potrace 1.11, written by Peter Selinger 2001-2013
<rdf:RDF>
  <cc:Work
     rdf:about="">
    <dc:format>image/svg+xml</dc:format>
    <dc:type
       rdf:resource="http://purl.org/dc/dcmitype/StillImage" />
  </cc:Work>
</rdf:RDF>
</metadata>
  <g
     transform="translate(0.000000,16.000000) scale(0.006154,-0.006154)"
     id="g14"
     stroke="none"
     fill="#000000">
    <path
       d="M531 1254 c-25 -22 -25 -23 -27 -190 0 -135 3 -175 15 -196 8 -16 22 -29 31 -29 50 -4 329 -5 347 -1 41 8 50 53 49 230 -3 219 11 207 -218 207 -162 0 -174 -1 -197 -21z"
       id="path6" />
    <path
       d="M1702 1255 c-23 -20 -24 -23 -24 -199 -1 -236 -16 -221 216 -222 236 -1 220 -15 221 203 1 181 -5 218 -38 230 -12 4 -96 7 -187 8 -152 1 -166 -1 -188 -20z"
       id="path8" />
    <path
       d="M1740 405 l0 -65 65 0 65 0 0 65 0 65 -65 0 -65 0 0 -65z"
       id="path10" />
    <path
       d="M1988 463 c-3 -7 -2 -90 1 -116 1 -4 29 -7 63 -5 l63 3 0 63 1 62 -62 0 c-35 0 -64 -3 -66 -7z"
       id="path12" />
    <path
       d="m 985,2355 c -176,-89 -327,-169 -335,-178 -8,-9 -24,-33 -35,-53 -11,-21 -51,-95 -88,-164 -38,-69 -88,-161 -112,-205 -24,-44 -70,-128 -102,-186 l -58,-106 1,-624 c 0,-463 4,-630 13,-646 6,-13 24,-26 39,-30 15,-3 464,-7 999,-7 535,0 1016.575,1.26251 1016.575,1.26251 54.8494,21.53044 37.1355,49.05943 45.425,61.91663 5.946,323.07907 -7.8586,773.06734 -1,1253.82086 -8,7 -36,50 -61,97 -70,133 -102,191 -133,245 -15,28 -46,84 -68,125 -23,42 -61,113 -86,159 l -45,83 -320,160 c -176,88 -321,164 -323,169 -2,5 -9,8 -15,7 -7,0 -156,-74 -332,-163 z m 262,-135 v -111 l -35,33 c -19,18 -54,52 -77,76 l -44,42 42,22 c 23,12 56,29 72,38 17,9 33,15 36,13 3,-1 6,-52 6,-113 z m 261,51 c 24,-13 23,-14 -52,-87 -41,-41 -77,-74 -79,-74 -3,0 -1,159 2,212 1,16 7,14 54,-11 28,-15 63,-33 75,-40 z m -379,-230 118,-120 v -120 c 0,-67 -2,-121 -4,-121 -6,0 -233,230 -234,238 -2,25 -3,242 -1,242 2,0 56,-54 121,-119 z m 486,-5 v -124 l -115,-116 c -63,-64 -117,-116 -120,-116 -6,0 -5,238 1,245 34,37 225,233 229,234 3,1 5,-55 5,-123 z M 877,1915 c 0,-129 -2,-235 -3,-235 -2,0 -55,51 -117,114 l -114,114 49,89 c 44,80 54,91 106,119 31,18 62,32 68,33 7,1 11,-73 11,-234 z m 944,202 c 51,-27 67,-42 88,-83 14,-27 28,-51 31,-54 3,-3 12,-21 21,-40 l 17,-35 -112,-112 c -61,-62 -113,-113 -116,-113 -3,0 -5,106 -5,235 0,129 3,235 7,235 3,0 34,-15 69,-33 z m -1068,-503 94,-91 -207,-1 -207,-1 67,123 c 37,68 70,128 74,134 4,7 21,-4 46,-31 22,-23 81,-83 133,-133 z m 1405,-37 30,-54 -206,-1 -205,-1 133,134 134,134 42,-78 c 23,-44 55,-104 72,-134 z m -1044,46 98,-101 h -101 c -70,0 -101,3 -102,11 -3,42 0,203 4,196 1,-3 46,-50 101,-106 z m 502,3 -1,-105 -104,1 h -104 l 104,104 c 57,57 104,104 105,104 1,0 1,-47 0,-104 z m 615,-243 c 5,-39 2,-1068 -2,-1081 -6,-16 -35,-17 -330,-16 -178,1 -327,2 -330,3 -4,1 -7,85 -6,189 0,103 -3,203 -8,222 -41,188 -261,266 -404,144 -64,-55 -94,-139 -92,-259 1,-82 2,-247 1,-270 v -30 l -332,2 c -183,0 -335,1 -338,2 -4,1 -5,1029 -1,1089 1,9 192,12 921,12 506,0 920,-3 921,-7 z M 1385,750 c 39,-32 44,-63 45,-260 1,-105 -1,-194 -4,-198 -3,-3 -57,-6 -120,-6 l -114,-1 v 201 c 0,224 4,241 69,274 35,18 96,13 124,-10 z"
       id="path4"
       inkscape:connector-curvature="0"
       sodipodi:nodetypes="ssccscccccsccccccccsscsscccccccsccscccccsscscsccsccssscccccsccscccssscccccccccccccccccccscccccccssccccccccccccccsccccccscc"
       style="fill:#835d1a;fill-opacity:0.96551722" />
    <path
       style="fill:#835d1a;fill-opacity:0.96551723;stroke-width:0.02259887"
       d="m 14.46014,14.462742 c -0.392393,-0.03383 -0.551249,-0.134181 -0.63346,-0.400173 -0.03681,-0.119103 -0.04042,-0.242704 -0.04011,-1.373815 4.05e-4,-1.45392 5.77e-4,-1.455564 0.169861,-1.619952 0.06003,-0.05829 0.147785,-0.117538 0.195375,-0.131902 0.04752,-0.01434 0.274531,-0.0333 0.504474,-0.04212 0.447688,-0.01719 1.959215,0.0046 2.233605,0.03213 0.267771,0.02691 0.356117,0.135141 0.414336,0.507609 0.04255,0.2722 0.04293,2.418463 4.63e-4,2.603126 -0.05128,0.223006 -0.171362,0.349414 -0.383784,0.404009 -0.126074,0.0324 -2.130285,0.04958 -2.460765,0.02109 z"
       id="path4497"
       inkscape:connector-curvature="0"
       transform="matrix(121.87195,0,0,-121.87195,0,2599.935)" />
    <path
       style="fill:#835d1a;fill-opacity:0.96551723;stroke-width:0.02259887"
       d="M 4.6562851,14.442336 C 4.4459187,14.426452 4.4038358,14.406842 4.3197614,14.285523 4.1786312,14.081872 4.1483344,13.796622 4.1489658,12.677454 c 4.839e-4,-0.857777 0.024512,-1.333239 0.073274,-1.449943 0.039378,-0.09425 0.1724915,-0.213504 0.3086035,-0.276483 0.1008263,-0.04665 0.1285468,-0.04759 1.4135775,-0.04759 h 1.3107345 l 0.1294997,0.05231 c 0.1649254,0.06661 0.250148,0.168493 0.3038673,0.363258 0.037461,0.135819 0.041175,0.256296 0.040835,1.32455 -3.277e-4,1.026649 -0.00525,1.196211 -0.038938,1.341886 -0.053274,0.230353 -0.1171105,0.352503 -0.2165286,0.414324 l -0.083142,0.0517 -1.2768361,0.0023 c -0.7022599,0.0012 -1.3581921,-0.0039 -1.4576272,-0.01139 z"
       id="path4499"
       inkscape:connector-curvature="0"
       transform="matrix(121.87195,0,0,-121.87195,0,2599.935)" />
    <path
       style="fill:#835d1a;fill-opacity:0.96551723;stroke-width:0.02259887"
       d="m 14.294703,18.010787 v -0.519774 h 0.519774 0.519774 v 0.519774 0.519775 h -0.519774 -0.519774 z"
       id="path4501"
       inkscape:connector-curvature="0"
       transform="matrix(121.87195,0,0,-121.87195,0,2599.935)" />
    <path
       style="fill:#835d1a;fill-opacity:0.96551723;stroke-width:0.02259887"
       d="m 16.471231,18.509957 c -0.06449,-0.0079 -0.124546,-0.02158 -0.133455,-0.03048 -0.0089,-0.0089 -0.02104,-0.217348 -0.02695,-0.463199 -0.0098,-0.408286 -0.0073,-0.449884 0.02934,-0.480283 0.03179,-0.02638 0.14017,-0.03502 0.522743,-0.04165 l 0.482642,-0.0084 v 0.498315 0.498314 l -0.09605,0.01164 c -0.169948,0.0206 -0.657389,0.03045 -0.778274,0.01572 z"
       id="path4503"
       inkscape:connector-curvature="0"
       transform="matrix(121.87195,0,0,-121.87195,0,2599.935)" />
    <path
       style="fill:#835d1a;fill-opacity:0.96551723;stroke-width:0.02259887"
       d="m 4.8929047,14.457582 c -0.1429379,-0.0062 -0.2717303,-0.01899 -0.2862055,-0.02839 -0.014487,-0.0094 -0.030505,-0.0045 -0.035631,0.01085 -0.013997,0.04199 -0.1879732,-0.04318 -0.2361428,-0.11561 -0.072842,-0.109523 -0.1214496,-0.21675 -0.1342832,-0.296227 -0.00702,-0.0435 -0.017451,-0.08672 -0.02317,-0.09605 -0.00572,-0.0093 0.00162,-0.01695 0.016301,-0.01695 0.020338,0 0.020436,-0.0075 4.124e-4,-0.03167 -0.038379,-0.04624 -0.045732,-0.242382 -0.045407,-1.211263 3.449e-4,-1.029524 0.00796,-1.233637 0.047848,-1.282866 0.024848,-0.03067 0.024449,-0.03343 -0.00248,-0.0172 -0.024375,0.01469 -0.02845,0.0099 -0.016949,-0.02011 0.00833,-0.0217 0.01514,-0.05448 0.01514,-0.07284 0,-0.01836 0.010053,-0.02717 0.02234,-0.01958 0.012491,0.0077 0.016777,-6.91e-4 0.00972,-0.01908 -0.017896,-0.04664 0.1857136,-0.252859 0.2943865,-0.298167 0.1252403,-0.05222 0.4458129,-0.06678 1.4701627,-0.06678 0.8562519,0 1.29536,0.017 1.3208759,0.05113 0.00685,0.0092 0.037683,0.0195 0.068514,0.02297 0.082254,0.0093 0.2063727,0.1 0.1913481,0.139898 -0.00688,0.01826 -0.00525,0.02596 0.00361,0.01709 0.020752,-0.02075 0.083325,0.06754 0.066808,0.09426 -0.00686,0.01111 0.00137,0.0255 0.018293,0.032 0.016925,0.0065 0.028989,0.03553 0.026809,0.06452 -0.00218,0.02899 0.0048,0.06457 0.015501,0.07907 0.037363,0.05061 0.04808,0.319077 0.049017,1.227871 0.001,0.97113 -0.014012,1.255073 -0.079247,1.498765 -0.02654,0.09915 -0.09744,0.224685 -0.1162626,0.205862 -0.007,-0.007 -0.0112,0.0058 -0.00934,0.02833 0.00217,0.02624 -0.010795,0.03994 -0.035915,0.03796 -0.021618,-0.0017 -0.034164,0.0052 -0.02788,0.01539 0.015368,0.02487 -0.01197,0.03956 -0.1042085,0.05601 -0.096653,0.01724 -2.1322981,0.02609 -2.4839738,0.0108 z"
       id="path4505"
       inkscape:connector-curvature="0"
       transform="matrix(121.87195,0,0,-121.87195,0,2599.935)" />
    <path
       style="fill:#835d1a;fill-opacity:0.96551723;stroke-width:0.02259887"
       d="m 15.762099,14.495335 c -0.0067,-0.0072 -0.31426,-0.01464 -0.68349,-0.0165 -0.36923,-0.0019 -0.667355,-0.0099 -0.662499,-0.01797 0.0049,-0.008 -0.0437,-0.0158 -0.107895,-0.01729 -0.124503,-0.0029 -0.296731,-0.06886 -0.35708,-0.136785 -0.06494,-0.0731 -0.128495,-0.204762 -0.147279,-0.305129 -0.02181,-0.11655 -0.02485,-2.471145 -0.0034,-2.617529 0.02219,-0.151249 0.03472,-0.194516 0.0735,-0.253692 0.05007,-0.07641 0.167449,-0.158025 0.200205,-0.1392 0.01527,0.0088 0.01997,0.0074 0.01044,-0.0031 -0.03166,-0.03484 0.127672,-0.0811 0.333709,-0.09689 0.27054,-0.02073 1.232812,-0.0198 1.864407,0.0018 0.59749,0.02044 0.691282,0.0276 0.773109,0.05899 0.108449,0.04161 0.214421,0.177577 0.189342,0.242932 -0.0072,0.01872 -0.003,0.02726 0.0096,0.0195 0.01229,-0.0076 0.02312,0.0046 0.02407,0.02707 9.51e-4,0.02248 0.0061,0.06122 0.0115,0.08608 0.03485,0.161127 0.04326,0.442256 0.04326,1.446328 0,1.005496 -0.0057,1.190013 -0.04084,1.322033 -0.05925,0.222612 -0.210866,0.337754 -0.490235,0.372301 -0.155793,0.01927 -1.026628,0.04189 -1.04041,0.02703 z M 13.957934,11.096 c 0.02811,-0.03584 0.02731,-0.03664 -0.0085,-0.0085 -0.02175,0.01706 -0.03955,0.03486 -0.03955,0.03955 0,0.0186 0.01856,0.0066 0.04808,-0.03102 z"
       id="path4507"
       inkscape:connector-curvature="0"
       transform="matrix(121.87195,0,0,-121.87195,0,2599.935)" />
    <path
       style="fill:#835d1a;fill-opacity:0.96551723;stroke-width:0.02259887"
       d="m 14.599119,14.478636 c -0.341858,-0.01652 -0.407503,-0.02779 -0.535795,-0.09204 -0.288912,-0.14469 -0.316879,-0.337315 -0.291554,-2.008107 0.01538,-1.014603 0.01881,-1.079085 0.06263,-1.176318 0.04811,-0.106749 0.170709,-0.218723 0.29293,-0.267532 0.140312,-0.05603 0.443963,-0.06848 1.420943,-0.05827 1.142966,0.01196 1.484083,0.03301 1.569804,0.0969 0.0786,0.05858 0.137687,0.165997 0.174561,0.317348 0.05211,0.213884 0.08497,1.431077 0.05773,2.138721 -0.02666,0.692581 -0.04309,0.771905 -0.186768,0.901712 -0.09936,0.08976 -0.208623,0.125983 -0.451483,0.149658 -0.208249,0.0203 -1.6798,0.01886 -2.112995,-0.0021 z"
       id="path4509"
       inkscape:connector-curvature="0"
       transform="matrix(121.87195,0,0,-121.87195,0,2599.935)" />
    <path
       style="fill:#835d1a;fill-opacity:0.96551723;stroke-width:0.02259887"
       d=""
       id="path4511"
       inkscape:connector-curvature="0"
       transform="matrix(121.87195,0,0,-121.87195,0,2599.935)" />
    <path
       style="fill:#835d1a;fill-opacity:0.96551723;stroke-width:0.02259887"
       d="M 4.7644867,14.459049 C 4.4100085,14.443859 4.377495,14.427427 4.2657918,14.207015 4.158791,13.995881 4.1424814,13.793238 4.1422696,12.672272 c -2.499e-4,-1.321873 0.010568,-1.421829 0.1714137,-1.583867 0.1396504,-0.140686 0.2467455,-0.179665 0.5528953,-0.201232 0.3023197,-0.0213 2.2405952,-0.01401 2.3427102,0.0088 0.2802513,0.06263 0.4163553,0.165341 0.4750977,0.358539 0.063169,0.207757 0.084136,0.683168 0.071498,1.621135 -0.010466,0.776794 -0.017868,0.919673 -0.057027,1.100806 -0.053291,0.246503 -0.1195729,0.374734 -0.2288215,0.442684 -0.079602,0.04951 -0.085123,0.04974 -1.2437986,0.0512 -0.640113,8.07e-4 -1.2979011,-0.0043 -1.4617513,-0.0113 z"
       id="path4513"
       inkscape:connector-curvature="0"
       transform="matrix(121.87195,0,0,-121.87195,0,2599.935)" />
    <path
       style="fill:#835d1a;fill-opacity:0.96551723;stroke-width:0.02259887"
       d="m 5.1123299,14.466085 c -0.00448,-0.0045 -0.1446598,-0.01043 -0.3115212,-0.01324 -0.3274293,-0.0055 -0.3819117,-0.02138 -0.4736288,-0.13798 -0.026249,-0.03337 -0.04121,-0.06067 -0.033247,-0.06067 0.00796,0 -0.00643,-0.02936 -0.031974,-0.06524 -0.092063,-0.12929 -0.1138045,-0.417336 -0.1127726,-1.494085 0.00108,-1.122917 0.015445,-1.389297 0.080291,-1.488457 0.046924,-0.07175 0.1997035,-0.22118 0.2580976,-0.252431 0.1085223,-0.05808 0.5096833,-0.07841 1.5352733,-0.07781 1.2314956,7.2e-4 1.387023,0.01954 1.5434551,0.186715 0.07351,0.07856 0.083663,0.09541 0.083663,0.138845 0,0.02575 0.01077,0.04681 0.023933,0.04681 0.013163,0 0.017647,0.01017 0.00997,0.0226 -0.00768,0.01243 -0.00603,0.03531 0.00368,0.05085 0.024624,0.03942 0.029584,0.06985 0.046959,0.288136 0.020289,0.254905 0.019958,1.761603 -4.474e-4,2.033898 -0.015297,0.204119 -0.021814,0.253056 -0.051162,0.384181 -0.00695,0.03107 -0.017573,0.08029 -0.023597,0.109377 -0.011378,0.05494 -0.073043,0.16289 -0.1067837,0.186935 -0.010671,0.0076 -0.018533,0.02286 -0.017471,0.0339 0.00106,0.01104 -0.00861,0.02007 -0.021493,0.02007 -0.012883,0 -0.031155,0.01251 -0.040604,0.0278 -0.00945,0.01529 -0.057384,0.03341 -0.1065205,0.04026 -0.099335,0.01386 -2.2412102,0.03242 -2.2540952,0.01954 z"
       id="path4515"
       inkscape:connector-curvature="0"
       transform="matrix(121.87195,0,0,-121.87195,0,2599.935)" />
    <path
       style="fill:#835d1a;fill-opacity:0.96551723;stroke-width:0.02259887"
       d="m 5.1126368,14.466392 c -0.00434,-0.0043 -0.1478975,-0.01039 -0.3190165,-0.01345 -0.171119,-0.0031 -0.3163813,-0.01406 -0.3228051,-0.02445 -0.00642,-0.01039 -0.0371,-0.02856 -0.068168,-0.04037 -0.031069,-0.01181 -0.061776,-0.04169 -0.068237,-0.0664 -0.00646,-0.02471 -0.022427,-0.04493 -0.035478,-0.04493 -0.013051,0 -0.01725,-0.0065 -0.00933,-0.0144 0.00792,-0.0079 -0.00452,-0.04097 -0.027648,-0.07345 -0.023125,-0.03248 -0.043164,-0.06668 -0.04453,-0.076 -0.00137,-0.0093 -0.00326,-0.01949 -0.00421,-0.0226 -0.050656,-0.165517 -0.065523,-0.500805 -0.065386,-1.474577 1.286e-4,-0.911492 0.00974,-1.154133 0.052796,-1.333333 0.00597,-0.02486 0.011639,-0.05216 0.01259,-0.06067 0.0026,-0.02325 0.2500336,-0.266578 0.2743893,-0.269835 0.044297,-0.0059 0.055858,-0.0097 0.083519,-0.02726 0.050187,-0.03186 0.5582993,-0.04902 1.4517309,-0.04902 0.9617604,0 1.1841263,0.01073 1.3476314,0.06504 0.138134,0.04588 0.2594732,0.156342 0.2760963,0.251345 0.00435,0.02486 0.014519,0.05028 0.022599,0.0565 0.00808,0.0062 0.018197,0.02655 0.022483,0.0452 0.00429,0.01864 0.012292,0.05424 0.017791,0.0791 0.057493,0.259912 0.054062,2.199453 -0.00454,2.564971 -0.030569,0.190678 -0.090416,0.342537 -0.1523977,0.386708 -0.010671,0.0076 -0.018533,0.02286 -0.017471,0.0339 0.00106,0.01104 -0.00861,0.02007 -0.021493,0.02007 -0.012883,0 -0.030942,0.01217 -0.040131,0.02703 -0.00919,0.01487 -0.052039,0.03332 -0.095221,0.04101 -0.082066,0.0146 -2.2517975,0.03363 -2.2655608,0.01987 z"
       id="path4517"
       inkscape:connector-curvature="0"
       transform="matrix(121.87195,0,0,-121.87195,0,2599.935)" />
    <path
       style="fill:#835d1a;fill-opacity:0.96551723;stroke-width:0.02259887"
       d="m 5.1131422,14.466897 c -0.00415,-0.0041 -0.1477798,-0.01038 -0.3191871,-0.01384 -0.2047404,-0.0041 -0.3168089,-0.01521 -0.3266891,-0.03227 -0.00827,-0.01428 -0.034288,-0.02964 -0.057815,-0.03413 -0.023527,-0.0045 -0.054035,-0.02851 -0.067797,-0.05337 -0.013762,-0.02486 -0.030106,-0.05028 -0.036321,-0.0565 -0.028963,-0.02896 -0.094631,-0.180243 -0.1038663,-0.239279 -0.033215,-0.212326 -0.039946,-0.339656 -0.041407,-0.78327 -8.971e-4,-0.272324 -0.010624,-0.491499 -0.021813,-0.491526 -0.011325,-2.7e-5 -0.013772,-0.06915 -0.00557,-0.157399 0.00804,-0.08654 0.018681,-0.384001 0.02364,-0.661017 0.0099,-0.553351 0.02015,-0.65603 0.073892,-0.740603 0.048056,-0.07562 0.205408,-0.224118 0.2209829,-0.208543 0.00678,0.0068 0.012334,0.0015 0.012334,-0.01182 0,-0.08257 0.3662306,-0.107673 1.5706215,-0.107673 0.8120834,0 1.1254344,0.01058 1.2429379,0.04195 0.1776178,0.04743 0.2154343,0.06642 0.2892178,0.145274 0.071932,0.07687 0.085709,0.09526 0.071379,0.09526 -0.00853,0 -6.983e-4,0.02288 0.01741,0.05085 0.047148,0.07282 0.062612,0.150427 0.079203,0.397491 0.032945,0.490611 0.011963,2.266935 -0.027533,2.33084 -0.00508,0.0082 -0.014854,0.0422 -0.021717,0.07551 -0.00686,0.03331 -0.018184,0.08831 -0.025157,0.122229 -0.00697,0.03392 -0.019685,0.06697 -0.028249,0.07345 -0.00856,0.0065 -0.033461,0.05046 -0.055327,0.09773 -0.021866,0.04727 -0.049832,0.07972 -0.062147,0.07211 -0.012315,-0.0076 -0.02239,-0.0028 -0.02239,0.01065 0,0.0614 -0.156666,0.07123 -1.2467258,0.07822 -0.618403,0.004 -1.127761,0.0038 -1.1319067,-3.32e-4 z"
       id="path4519"
       inkscape:connector-curvature="0"
       transform="matrix(121.87195,0,0,-121.87195,0,2599.935)" />
    <path
       style="fill:#835d1a;fill-opacity:0.96551723;stroke-width:0.00399495"
       d="m 14.277168,18.008397 v -0.531329 h 0.533327 0.533326 v 0.531329 0.531329 h -0.533326 -0.533327 z m 1.058663,0.002 V 17.489053 H 14.81449 14.293148 v 0.521342 0.521341 h 0.521342 0.521341 z"
       id="path4521"
       inkscape:connector-curvature="0"
       transform="matrix(121.87195,0,0,-121.87195,0,2599.935)" />
    <path
       style="fill:#835d1a;fill-opacity:0.96551723;stroke-width:0.00399495"
       d="m 16.546302,18.527863 c -0.102772,-0.0054 -0.185963,-0.01789 -0.209584,-0.03152 -0.0081,-0.0047 -0.01272,-0.01121 -0.01464,-0.02067 -0.0037,-0.01807 -0.01065,-0.123215 -0.01553,-0.233569 -0.005,-0.112035 -0.0085,-0.544074 -0.0041,-0.495374 0.0018,0.01977 0.0035,0.07011 0.0037,0.111858 0.0012,0.204572 0.01663,0.552808 0.02693,0.608655 0.003,0.01632 0.01362,0.02148 0.06652,0.03236 0.07592,0.01561 0.114029,0.01773 0.312432,0.0174 0.271346,-4.43e-4 0.50168,-0.01212 0.620216,-0.03145 l 0.01298,-0.0021 v -0.499188 -0.499188 l -0.03496,2.7e-5 c -0.09581,7.4e-5 -0.669141,0.01236 -0.74406,0.01594 -0.210722,0.01008 -0.238851,0.01952 -0.254009,0.08525 l -0.0057,0.02462 0.0016,-0.03245 c 0.0019,-0.03792 0.0063,-0.04813 0.02411,-0.05558 0.03469,-0.01449 0.141906,-0.02933 0.273936,-0.0379 0.03626,-0.0024 0.221236,-0.0054 0.411071,-0.0067 l 0.345153,-0.0024 -0.0026,0.05551 c -0.0014,0.03053 -0.0037,0.260788 -0.0052,0.511682 l -0.0026,0.456171 -0.02435,0.0022 c -0.04613,0.0042 -0.543851,0.02624 -0.631588,0.02792 -0.04834,9.25e-4 -0.115754,2.23e-4 -0.149811,-0.0016 z"
       id="path4523"
       inkscape:connector-curvature="0"
       transform="matrix(121.87195,0,0,-121.87195,0,2599.935)" />
    <path
       style="fill:#835d1a;fill-opacity:0.96551723;stroke-width:0.00399495"
       d="m 16.327043,18.418879 c 5.01e-4,-0.02698 0.0024,-0.02437 0.0044,0.006 6.72e-4,0.01044 -1.39e-4,0.01898 -0.0018,0.01898 -0.0017,0 -0.0028,-0.01124 -0.0026,-0.02497 z"
       id="path4525"
       inkscape:connector-curvature="0"
       transform="matrix(121.87195,0,0,-121.87195,0,2599.935)" />
    <path
       style="fill:#835d1a;fill-opacity:0.96551723;stroke-width:0.00399495"
       d="m 16.554039,18.530252 c -9.6e-4,-9.03e-4 -0.02062,-0.0029 -0.04369,-0.0043 -0.02307,-0.0015 -0.04734,-0.0032 -0.05393,-0.0039 -0.04851,-0.005 -0.06434,-0.0074 -0.07346,-0.01083 -0.0057,-0.0022 -0.01133,-0.0039 -0.01243,-0.0039 -0.01016,5.41e-4 -0.0472,-0.01431 -0.04845,-0.01943 -0.002,-0.0083 -0.0068,-0.06112 -0.0097,-0.107954 -0.0088,-0.14 -0.01176,-0.267145 -0.01176,-0.499369 0,-0.266035 0.0032,-0.33739 0.0159,-0.350046 0.0066,-0.0066 0.03114,-0.01585 0.05066,-0.01911 0.0073,-0.0012 0.01784,-0.0032 0.02333,-0.0044 0.0149,-0.0033 0.05097,-0.0085 0.0819,-0.01191 0.03746,-0.0041 0.05592,-0.0057 0.09388,-0.0082 0.02087,-0.0014 0.04874,-0.0033 0.06192,-0.0043 0.01318,-9.75e-4 0.183625,-0.0028 0.378759,-0.0041 l 0.35479,-0.0023 -0.003,0.169252 c -0.0035,0.199174 -0.0032,0.168503 -0.0045,0.553193 l -9.98e-4,0.304042 -0.01099,-1.37e-4 c -0.006,-7.6e-5 -0.03615,0.0012 -0.06692,0.0027 -0.05966,0.0031 -0.09909,0.005 -0.175778,0.0086 -0.02637,0.0012 -0.06322,0.003 -0.0819,0.0039 -0.01868,9.14e-4 -0.05692,0.0027 -0.08499,0.004 -0.02807,0.0013 -0.06313,0.0033 -0.0779,0.0043 -0.03559,0.0026 -0.298538,0.0062 -0.300773,0.0041 z"
       id="path4527"
       inkscape:connector-curvature="0"
       transform="matrix(121.87195,0,0,-121.87195,0,2599.935)" />
    <path
       style="fill:#835d1a;fill-opacity:0.96551723;stroke-width:0.00399495"
       d="m 14.277168,18.010395 v -0.533327 h 0.533327 0.533326 v 0.533327 0.533326 h -0.533326 -0.533327 z"
       id="path4529"
       inkscape:connector-curvature="0"
       transform="matrix(121.87195,0,0,-121.87195,0,2599.935)" />
  </g>
</svg>
